# xmcd
#
# Track frame offsets:
# 150
# 24620
# 47066
# 67999
# 83830
# 102450
# 127873
# 140626
#
# Disc length: 2119 seconds
#
# Revision: 0
# Processed by: cddbd v1.5.2PL0 Copyright (c) Steve Scherf et al.
# Submitted via: Audion 3.0.2 (http://www.panic.com/audion/)
#
DISCID=68084508
DTITLE=David Benoit - Stages
DYEAR=1900
DGENRE=
TTITLE0=Hermosa Skyline
TTITLE1=Oslo
TTITLE2=Promise Me a Carousel
TTITLE3=Take a Look Inside My Heart	
TTITLE4=I Love You
TTITLE5=Some Other Sunset
TTITLE6=Stages
TTITLE7=I Remember Bill Evans
EXTD=
EXTT0=
EXTT1=
EXTT2=
EXTT3=
EXTT4=
EXTT5=
EXTT6=
EXTT7=
PLAYORDER=
